<svg class="diagram-root" style="background: #f5f6f6" xmlns="http://www.w3.org/2000/svg" xmlns:xlink="http://www.w3.org/1999/xlink"><style>.diagram-root { font-family: "Helvetica Neue", sans-serif; font-size: 12px; } .t { overflow: visible; } .t-bg { y: 40; fill: #fff;   } .th { fill: #005aa0;   } .tht { fill: #fff; font-size: 14px;  } .tf { fill: #323c46; overflow: visible; } .tf.pk { fill: #005aa0; font-weight: bold; } .tf.fk { font-weight: bold; } .ty { fill: #adb1b5; font-weight: normal; text-anchor: end; } .r { fill: transparent; stroke: #c3c3c3; stroke-width: 1; } .l { stroke: 1; } .i { fill: #c2c7ce; stroke: #c2c7ce; } .i.ix { fill: #afb3b6; stroke: #000; } .fa { fill: transparent; overflow: visible; } .fa .bg.hover { fill: #f7f7f7; } .c { cy: 12; r: 4; stroke: #d2d2dc; fill: #d2d2dc; } .hr { fill: transparent; stroke: #323c46; stroke-opacity: 0.035; stroke-width: 13; } .dc { stroke: #fa5a3c; fill: #fa5a3c; } .x { stroke: white; stroke-width: 1; } .hl .th { fill: #1b9bff; } .hl .tht {  } .fhl .bg { fill: #e7f4ff; } .fhls .bg {  } .r.hl { stroke: #1b9bff; } .dim { opacity: 0.25; }</style><g class="drawing-wrapper" transform="translate(473, 348.57) scale(1,1)"><g class="rs"><path d="M -121.14 151.29 m -1, 0 a 1,1 0 1,0 2,0 a 1,1 0 1,0 -2,0 M -121.14 151.29 m -0.5, 0 a 0.5,0.5 0 1,0 1,0 a 0.5,0.5 0 1,0 -1,0  M-121.14 151.29 L-121.14 151.29 -109.14 151.29 M -121.14 157.29 m -1, 0 a 1,1 0 1,0 2,0 a 1,1 0 1,0 -2,0 M -121.14 157.29 m -0.5, 0 a 0.5,0.5 0 1,0 1,0 a 0.5,0.5 0 1,0 -1,0  M-121.14 157.29 L-121.14 157.29 -114.14 151.29 -121.14 145.29 M -121.14 145.29 m -1, 0 a 1,1 0 1,0 2,0 a 1,1 0 1,0 -2,0 M -121.14 145.29 m -0.5, 0 a 0.5,0.5 0 1,0 1,0 a 0.5,0.5 0 1,0 -1,0  M-109.14 151.29 Q 35.99 151.29, 181.13 95.88 T 471.4 40.47 M 483.4 40.47 m -1, 0 a 1,1 0 1,0 2,0 a 1,1 0 1,0 -2,0 M 483.4 40.47 m -0.5, 0 a 0.5,0.5 0 1,0 1,0 a 0.5,0.5 0 1,0 -1,0  M483.4 40.47 L483.4 40.47 471.4 40.47 M477.4 46.47 L477.4 46.47 477.4 34.47" id="h1523670150" class="r"></path><path d="M 339.7 232.71 m -1, 0 a 1,1 0 1,0 2,0 a 1,1 0 1,0 -2,0 M 339.7 232.71 m -0.5, 0 a 0.5,0.5 0 1,0 1,0 a 0.5,0.5 0 1,0 -1,0  M339.7 232.71 L339.7 232.71 351.7 232.71 M 339.7 238.71 m -1, 0 a 1,1 0 1,0 2,0 a 1,1 0 1,0 -2,0 M 339.7 238.71 m -0.5, 0 a 0.5,0.5 0 1,0 1,0 a 0.5,0.5 0 1,0 -1,0  M339.7 238.71 L339.7 238.71 346.7 232.71 339.7 226.71 M 339.7 226.71 m -1, 0 a 1,1 0 1,0 2,0 a 1,1 0 1,0 -2,0 M 339.7 226.71 m -0.5, 0 a 0.5,0.5 0 1,0 1,0 a 0.5,0.5 0 1,0 -1,0  M351.7 232.71 Q 381.63 232.71, 411.55 136.59 T 471.4 40.47 M 483.4 40.47 m -1, 0 a 1,1 0 1,0 2,0 a 1,1 0 1,0 -2,0 M 483.4 40.47 m -0.5, 0 a 0.5,0.5 0 1,0 1,0 a 0.5,0.5 0 1,0 -1,0  M483.4 40.47 L483.4 40.47 471.4 40.47 M477.4 46.47 L477.4 46.47 477.4 34.47" id="h241242287" class="r"></path><path d="M 332.32 -150.14 m -1, 0 a 1,1 0 1,0 2,0 a 1,1 0 1,0 -2,0 M 332.32 -150.14 m -0.5, 0 a 0.5,0.5 0 1,0 1,0 a 0.5,0.5 0 1,0 -1,0  M332.32 -150.14 L332.32 -150.14 344.32 -150.14 M 332.32 -144.14 m -1, 0 a 1,1 0 1,0 2,0 a 1,1 0 1,0 -2,0 M 332.32 -144.14 m -0.5, 0 a 0.5,0.5 0 1,0 1,0 a 0.5,0.5 0 1,0 -1,0  M332.32 -144.14 L332.32 -144.14 339.32 -150.14 332.32 -156.14 M 332.32 -156.14 m -1, 0 a 1,1 0 1,0 2,0 a 1,1 0 1,0 -2,0 M 332.32 -156.14 m -0.5, 0 a 0.5,0.5 0 1,0 1,0 a 0.5,0.5 0 1,0 -1,0  M344.32 -150.14 Q 376.09 -150.14, 407.86 -54.83 T 471.4 40.47 M 483.4 40.47 m -1, 0 a 1,1 0 1,0 2,0 a 1,1 0 1,0 -2,0 M 483.4 40.47 m -0.5, 0 a 0.5,0.5 0 1,0 1,0 a 0.5,0.5 0 1,0 -1,0  M483.4 40.47 L483.4 40.47 471.4 40.47 M477.4 46.47 L477.4 46.47 477.4 34.47" id="h2802559661" class="r"></path><path d="M 699.71 -261.57 m -1, 0 a 1,1 0 1,0 2,0 a 1,1 0 1,0 -2,0 M 699.71 -261.57 m -0.5, 0 a 0.5,0.5 0 1,0 1,0 a 0.5,0.5 0 1,0 -1,0  M699.71 -261.57 L699.71 -261.57 687.71 -261.57 M 699.71 -255.57 m -1, 0 a 1,1 0 1,0 2,0 a 1,1 0 1,0 -2,0 M 699.71 -255.57 m -0.5, 0 a 0.5,0.5 0 1,0 1,0 a 0.5,0.5 0 1,0 -1,0  M699.71 -255.57 L699.71 -255.57 692.71 -261.57 699.71 -267.57 M 699.71 -267.57 m -1, 0 a 1,1 0 1,0 2,0 a 1,1 0 1,0 -2,0 M 699.71 -267.57 m -0.5, 0 a 0.5,0.5 0 1,0 1,0 a 0.5,0.5 0 1,0 -1,0  M687.71 -261.57 C 291.6139999999999 -261.57, 421.4 40.47, 471.4 40.47 M 483.4 40.47 m -1, 0 a 1,1 0 1,0 2,0 a 1,1 0 1,0 -2,0 M 483.4 40.47 m -0.5, 0 a 0.5,0.5 0 1,0 1,0 a 0.5,0.5 0 1,0 -1,0  M483.4 40.47 L483.4 40.47 471.4 40.47 M477.4 46.47 L477.4 46.47 477.4 34.47" id="h456310991" class="r"></path><path d="M 1044 -25 m -1, 0 a 1,1 0 1,0 2,0 a 1,1 0 1,0 -2,0 M 1044 -25 m -0.5, 0 a 0.5,0.5 0 1,0 1,0 a 0.5,0.5 0 1,0 -1,0  M1044 -25 L1044 -25 1032 -25 M 1044 -19 m -1, 0 a 1,1 0 1,0 2,0 a 1,1 0 1,0 -2,0 M 1044 -19 m -0.5, 0 a 0.5,0.5 0 1,0 1,0 a 0.5,0.5 0 1,0 -1,0  M1044 -19 L1044 -19 1037 -25 1044 -31 M 1044 -31 m -1, 0 a 1,1 0 1,0 2,0 a 1,1 0 1,0 -2,0 M 1044 -31 m -0.5, 0 a 0.5,0.5 0 1,0 1,0 a 0.5,0.5 0 1,0 -1,0  M1032 -25 Q 945.04 -25, 858.08 7.74 T 684.16 40.47 M 672.16 40.47 m -1, 0 a 1,1 0 1,0 2,0 a 1,1 0 1,0 -2,0 M 672.16 40.47 m -0.5, 0 a 0.5,0.5 0 1,0 1,0 a 0.5,0.5 0 1,0 -1,0  M672.16 40.47 L672.16 40.47 684.16 40.47 M678.16 46.47 L678.16 46.47 678.16 34.47" id="h1493928692" class="r"></path><path d="M 750 379 m -1, 0 a 1,1 0 1,0 2,0 a 1,1 0 1,0 -2,0 M 750 379 m -0.5, 0 a 0.5,0.5 0 1,0 1,0 a 0.5,0.5 0 1,0 -1,0  M750 379 L750 379 738 379 M 750 385 m -1, 0 a 1,1 0 1,0 2,0 a 1,1 0 1,0 -2,0 M 750 385 m -0.5, 0 a 0.5,0.5 0 1,0 1,0 a 0.5,0.5 0 1,0 -1,0  M750 385 L750 385 743 379 750 373 M 750 373 m -1, 0 a 1,1 0 1,0 2,0 a 1,1 0 1,0 -2,0 M 750 373 m -0.5, 0 a 0.5,0.5 0 1,0 1,0 a 0.5,0.5 0 1,0 -1,0  M738 379 C 261.43999999999994 379, 421.4 40.47, 471.4 40.47 M 483.4 40.47 m -1, 0 a 1,1 0 1,0 2,0 a 1,1 0 1,0 -2,0 M 483.4 40.47 m -0.5, 0 a 0.5,0.5 0 1,0 1,0 a 0.5,0.5 0 1,0 -1,0  M483.4 40.47 L483.4 40.47 471.4 40.47 M477.4 46.47 L477.4 46.47 477.4 34.47" id="h1048788647" class="r"></path><path d="M 494 807 m -1, 0 a 1,1 0 1,0 2,0 a 1,1 0 1,0 -2,0 M 494 807 m -0.5, 0 a 0.5,0.5 0 1,0 1,0 a 0.5,0.5 0 1,0 -1,0  M494 807 L494 807 482 807 M 494 813 m -1, 0 a 1,1 0 1,0 2,0 a 1,1 0 1,0 -2,0 M 494 813 m -0.5, 0 a 0.5,0.5 0 1,0 1,0 a 0.5,0.5 0 1,0 -1,0  M494 813 L494 813 487 807 494 801 M 494 801 m -1, 0 a 1,1 0 1,0 2,0 a 1,1 0 1,0 -2,0 M 494 801 m -0.5, 0 a 0.5,0.5 0 1,0 1,0 a 0.5,0.5 0 1,0 -1,0  M482 807 C 415.03999999999996 807, 421.4 40.47, 471.4 40.47 M 483.4 40.47 m -1, 0 a 1,1 0 1,0 2,0 a 1,1 0 1,0 -2,0 M 483.4 40.47 m -0.5, 0 a 0.5,0.5 0 1,0 1,0 a 0.5,0.5 0 1,0 -1,0  M483.4 40.47 L483.4 40.47 471.4 40.47 M477.4 46.47 L477.4 46.47 477.4 34.47" id="h2244056999" class="r"></path></g><g class="hrs"></g><g class="ts"><svg width="265.42" height="1200" x="74.28" y="175.71" id="h4273809334" class="t"><rect height="40" width="265.42" class="th"></rect><text x="13" y="25" class="tht">Assistance</text><rect height="1160" width="265.42" class="t-bg"></rect><text x="13" y="61" class="tf fk">County<tspan x="252.42000000000002" class="ty">varchar</tspan></text><text x="13" y="86" class="tf">REDEMP_SNAPS12<tspan x="252.42000000000002" class="ty">numeric</tspan></text><text x="13" y="111" class="tf">REDEMP_SNAPS16<tspan x="252.42000000000002" class="ty">numeric</tspan></text><text x="13" y="136" class="tf">PCH_REDEMP_SNAPS_12_16<tspan x="252.42000000000002" class="ty">numeric</tspan></text><text x="13" y="161" class="tf">PCT_SNAP12<tspan x="252.42000000000002" class="ty">numeric</tspan></text><text x="13" y="186" class="tf">PCT_SNAP16<tspan x="252.42000000000002" class="ty">numeric</tspan></text><text x="13" y="211" class="tf">PCH_SNAP_12_16<tspan x="252.42000000000002" class="ty">numeric</tspan></text><text x="13" y="236" class="tf">PC_SNAPBEN10<tspan x="252.42000000000002" class="ty">numeric</tspan></text><text x="13" y="261" class="tf">PC_SNAPBEN15<tspan x="252.42000000000002" class="ty">numeric</tspan></text><text x="13" y="286" class="tf">PCH_PC_SNAPBEN_10_15<tspan x="252.42000000000002" class="ty">numeric</tspan></text><text x="13" y="311" class="tf">SNAP_PART_RATE08<tspan x="252.42000000000002" class="ty">numeric</tspan></text><text x="13" y="336" class="tf">SNAP_PART_RATE13<tspan x="252.42000000000002" class="ty">numeric</tspan></text><text x="13" y="361" class="tf">SNAP_OAPP09<tspan x="252.42000000000002" class="ty">numeric</tspan></text><text x="13" y="386" class="tf">SNAP_OAPP16<tspan x="252.42000000000002" class="ty">numeric</tspan></text><text x="13" y="411" class="tf">SNAP_CAP09<tspan x="252.42000000000002" class="ty">numeric</tspan></text><text x="13" y="436" class="tf">SNAP_CAP16<tspan x="252.42000000000002" class="ty">numeric</tspan></text><text x="13" y="461" class="tf">SNAP_BBCE09<tspan x="252.42000000000002" class="ty">numeric</tspan></text><text x="13" y="486" class="tf">SNAP_BBCE16<tspan x="252.42000000000002" class="ty">numeric</tspan></text><text x="13" y="511" class="tf">SNAP_REPORTSIMPLE09<tspan x="252.42000000000002" class="ty">numeric</tspan></text><text x="13" y="536" class="tf">SNAP_REPORTSIMPLE16<tspan x="252.42000000000002" class="ty">numeric</tspan></text><text x="13" y="561" class="tf">PCT_NSLP09<tspan x="252.42000000000002" class="ty">numeric</tspan></text><text x="13" y="586" class="tf">PCT_NSLP15<tspan x="252.42000000000002" class="ty">numeric</tspan></text><text x="13" y="611" class="tf">PCH_NSLP_09_15<tspan x="252.42000000000002" class="ty">numeric</tspan></text><text x="13" y="636" class="tf">PCT_FREE_LUNCH09<tspan x="252.42000000000002" class="ty">numeric</tspan></text><text x="13" y="661" class="tf">PCT_FREE_LUNCH14<tspan x="252.42000000000002" class="ty">numeric</tspan></text><text x="13" y="686" class="tf">PCT_REDUCED_LUNCH09<tspan x="252.42000000000002" class="ty">numeric</tspan></text><text x="13" y="711" class="tf">PCT_REDUCED_LUNCH14<tspan x="252.42000000000002" class="ty">numeric</tspan></text><text x="13" y="736" class="tf">PCT_SBP09<tspan x="252.42000000000002" class="ty">numeric</tspan></text><text x="13" y="761" class="tf">PCT_SBP15<tspan x="252.42000000000002" class="ty">numeric</tspan></text><text x="13" y="786" class="tf">PCH_SBP_09_15<tspan x="252.42000000000002" class="ty">numeric</tspan></text><text x="13" y="811" class="tf">PCT_SFSP09<tspan x="252.42000000000002" class="ty">numeric</tspan></text><text x="13" y="836" class="tf">PCT_SFSP15<tspan x="252.42000000000002" class="ty">numeric</tspan></text><text x="13" y="861" class="tf">PCH_SFSP_09_15<tspan x="252.42000000000002" class="ty">numeric</tspan></text><text x="13" y="886" class="tf">PC_WIC_REDEMP08<tspan x="252.42000000000002" class="ty">numeric</tspan></text><text x="13" y="911" class="tf">PC_WIC_REDEMP12<tspan x="252.42000000000002" class="ty">numeric</tspan></text><text x="13" y="936" class="tf">PCH_PC_WIC_REDEMP_08_12<tspan x="252.42000000000002" class="ty">numeric</tspan></text><text x="13" y="961" class="tf">REDEMP_WICS08<tspan x="252.42000000000002" class="ty">numeric</tspan></text><text x="13" y="986" class="tf">REDEMP_WICS12<tspan x="252.42000000000002" class="ty">numeric</tspan></text><text x="13" y="1011" class="tf">PCH_REDEMP_WICS_08_12<tspan x="252.42000000000002" class="ty">numeric</tspan></text><text x="13" y="1036" class="tf">PCT_WIC09<tspan x="252.42000000000002" class="ty">numeric</tspan></text><text x="13" y="1061" class="tf">PCT_WIC15<tspan x="252.42000000000002" class="ty">numeric</tspan></text><text x="13" y="1086" class="tf">PCH_WIC_09_15<tspan x="252.42000000000002" class="ty">numeric</tspan></text><text x="13" y="1111" class="tf">PCT_CACFP09<tspan x="252.42000000000002" class="ty">numeric</tspan></text><text x="13" y="1136" class="tf">PCT_CACFP15<tspan x="252.42000000000002" class="ty">numeric</tspan></text><text x="13" y="1161" class="tf">PCH_CACFP_09_15<tspan x="252.42000000000002" class="ty">numeric</tspan></text><text x="13" y="1186" class="tf">FDPIR12<tspan x="252.42000000000002" class="ty">numeric</tspan></text></svg><svg width="245.18" height="350" x="87.14" y="-207.14" id="h3111088710" class="t"><rect height="40" width="245.18" class="th"></rect><text x="13" y="25" class="tht">Health</text><rect height="310" width="245.18" class="t-bg"></rect><text x="13" y="61" class="tf fk">County<tspan x="232.18" class="ty">varchar</tspan></text><text x="13" y="86" class="tf">PCT_DIABETES_ADULTS08<tspan x="232.18" class="ty">numeric</tspan></text><text x="13" y="111" class="tf">PCT_DIABETES_ADULTS13<tspan x="232.18" class="ty">numeric</tspan></text><text x="13" y="136" class="tf">PCT_OBESE_ADULTS08<tspan x="232.18" class="ty">numeric</tspan></text><text x="13" y="161" class="tf">PCT_OBESE_ADULTS13<tspan x="232.18" class="ty">numeric</tspan></text><text x="13" y="186" class="tf">PCT_HSPA15<tspan x="232.18" class="ty">numeric</tspan></text><text x="13" y="211" class="tf">RECFAC09<tspan x="232.18" class="ty">numeric</tspan></text><text x="13" y="236" class="tf">RECFAC14<tspan x="232.18" class="ty">numeric</tspan></text><text x="13" y="261" class="tf">PCH_RECFAC_09_14<tspan x="232.18" class="ty">numeric</tspan></text><text x="13" y="286" class="tf">RECFACPTH09<tspan x="232.18" class="ty">numeric</tspan></text><text x="13" y="311" class="tf">RECFACPTH14<tspan x="232.18" class="ty">numeric</tspan></text><text x="13" y="336" class="tf">PCH_RECFACPTH_09_14<tspan x="232.18" class="ty">numeric</tspan></text></svg><svg width="242.74" height="275" x="699.71" y="-318.57" id="h3946860084" class="t"><rect height="40" width="242.74" class="th"></rect><text x="13" y="25" class="tht">Insecurity</text><rect height="235" width="242.74" class="t-bg"></rect><text x="13" y="61" class="tf fk">County<tspan x="229.74" class="ty">varchar</tspan></text><text x="13" y="86" class="tf">FOODINSEC_10_12<tspan x="229.74" class="ty">numeric</tspan></text><text x="13" y="111" class="tf">FOODINSEC_13_15<tspan x="229.74" class="ty">numeric</tspan></text><text x="13" y="136" class="tf">CH_FOODINSEC_12_15<tspan x="229.74" class="ty">numeric</tspan></text><text x="13" y="161" class="tf">VLFOODSEC_10_12<tspan x="229.74" class="ty">numeric</tspan></text><text x="13" y="186" class="tf">VLFOODSEC_13_15<tspan x="229.74" class="ty">numeric</tspan></text><text x="13" y="211" class="tf">CH_VLFOODSEC_12_15<tspan x="229.74" class="ty">numeric</tspan></text><text x="13" y="236" class="tf">FOODINSEC_CHILD_01_07<tspan x="229.74" class="ty">numeric</tspan></text><text x="13" y="261" class="tf">FOODINSEC_CHILD_03_11<tspan x="229.74" class="ty">numeric</tspan></text></svg><svg width="298.76" height="2500" x="1044" y="-82" id="h1915772212" class="t"><rect height="40" width="298.76" class="th"></rect><text x="13" y="25" class="tht">Local</text><rect height="2460" width="298.76" class="t-bg"></rect><text x="13" y="61" class="tf fk">County<tspan x="285.76" class="ty">varchar</tspan></text><text x="13" y="86" class="tf">DIRSALES_FARMS07<tspan x="285.76" class="ty">numeric</tspan></text><text x="13" y="111" class="tf">DIRSALES_FARMS12<tspan x="285.76" class="ty">numeric</tspan></text><text x="13" y="136" class="tf">PCH_DIRSALES_FARMS_07_12<tspan x="285.76" class="ty">numeric</tspan></text><text x="13" y="161" class="tf">PCT_LOCLFARM07<tspan x="285.76" class="ty">numeric</tspan></text><text x="13" y="186" class="tf">PCT_LOCLFARM12<tspan x="285.76" class="ty">numeric</tspan></text><text x="13" y="211" class="tf">PCT_LOCLSALE07<tspan x="285.76" class="ty">numeric</tspan></text><text x="13" y="236" class="tf">PCT_LOCLSALE12<tspan x="285.76" class="ty">numeric</tspan></text><text x="13" y="261" class="tf">DIRSALES07<tspan x="285.76" class="ty">numeric</tspan></text><text x="13" y="286" class="tf">DIRSALES12<tspan x="285.76" class="ty">numeric</tspan></text><text x="13" y="311" class="tf">PCH_DIRSALES_07_12<tspan x="285.76" class="ty">numeric</tspan></text><text x="13" y="336" class="tf">PC_DIRSALES07<tspan x="285.76" class="ty">numeric</tspan></text><text x="13" y="361" class="tf">PC_DIRSALES12<tspan x="285.76" class="ty">numeric</tspan></text><text x="13" y="386" class="tf">PCH_PC_DIRSALES_07_12<tspan x="285.76" class="ty">numeric</tspan></text><text x="13" y="411" class="tf">FMRKT09<tspan x="285.76" class="ty">numeric</tspan></text><text x="13" y="436" class="tf">FMRKT16<tspan x="285.76" class="ty">numeric</tspan></text><text x="13" y="461" class="tf">PCH_FMRKT_09_16<tspan x="285.76" class="ty">numeric</tspan></text><text x="13" y="486" class="tf">FMRKTPTH09<tspan x="285.76" class="ty">numeric</tspan></text><text x="13" y="511" class="tf">FMRKTPTH16<tspan x="285.76" class="ty">numeric</tspan></text><text x="13" y="536" class="tf">PCH_FMRKTPTH_09_16<tspan x="285.76" class="ty">numeric</tspan></text><text x="13" y="561" class="tf">FMRKT_SNAP16<tspan x="285.76" class="ty">numeric</tspan></text><text x="13" y="586" class="tf">PCT_FMRKT_SNAP16<tspan x="285.76" class="ty">numeric</tspan></text><text x="13" y="611" class="tf">FMRKT_WIC16<tspan x="285.76" class="ty">numeric</tspan></text><text x="13" y="636" class="tf">PCT_FMRKT_WIC16<tspan x="285.76" class="ty">numeric</tspan></text><text x="13" y="661" class="tf">FMRKT_WICCASH16<tspan x="285.76" class="ty">numeric</tspan></text><text x="13" y="686" class="tf">PCT_FMRKT_WICCASH16<tspan x="285.76" class="ty">numeric</tspan></text><text x="13" y="711" class="tf">FMRKT_SFMNP16<tspan x="285.76" class="ty">numeric</tspan></text><text x="13" y="736" class="tf">PCT_FMRKT_SFMNP16<tspan x="285.76" class="ty">numeric</tspan></text><text x="13" y="761" class="tf">FMRKT_CREDIT16<tspan x="285.76" class="ty">numeric</tspan></text><text x="13" y="786" class="tf">PCT_FMRKT_CREDIT16<tspan x="285.76" class="ty">numeric</tspan></text><text x="13" y="811" class="tf">FMRKT_FRVEG16<tspan x="285.76" class="ty">numeric</tspan></text><text x="13" y="836" class="tf">PCT_FMRKT_FRVEG16<tspan x="285.76" class="ty">numeric</tspan></text><text x="13" y="861" class="tf">FMRKT_ANMLPROD16<tspan x="285.76" class="ty">numeric</tspan></text><text x="13" y="886" class="tf">PCT_FMRKT_ANMLPROD16<tspan x="285.76" class="ty">numeric</tspan></text><text x="13" y="911" class="tf">FMRKT_BAKED16<tspan x="285.76" class="ty">numeric</tspan></text><text x="13" y="936" class="tf">PCT_FMRKT_BAKED16<tspan x="285.76" class="ty">numeric</tspan></text><text x="13" y="961" class="tf">FMRKT_OTHERFOOD16<tspan x="285.76" class="ty">numeric</tspan></text><text x="13" y="986" class="tf">PCT_FMRKT_OTHERFOOD16<tspan x="285.76" class="ty">numeric</tspan></text><text x="13" y="1011" class="tf">VEG_FARMS07<tspan x="285.76" class="ty">numeric</tspan></text><text x="13" y="1036" class="tf">VEG_FARMS12<tspan x="285.76" class="ty">numeric</tspan></text><text x="13" y="1061" class="tf">PCH_VEG_FARMS_07_12<tspan x="285.76" class="ty">numeric</tspan></text><text x="13" y="1086" class="tf">VEG_ACRES07<tspan x="285.76" class="ty">numeric</tspan></text><text x="13" y="1111" class="tf">VEG_ACRES12<tspan x="285.76" class="ty">numeric</tspan></text><text x="13" y="1136" class="tf">PCH_VEG_ACRES_07_12<tspan x="285.76" class="ty">numeric</tspan></text><text x="13" y="1161" class="tf">VEG_ACRESPTH07<tspan x="285.76" class="ty">numeric</tspan></text><text x="13" y="1186" class="tf">VEG_ACRESPTH12<tspan x="285.76" class="ty">numeric</tspan></text><text x="13" y="1211" class="tf">PCH_VEG_ACRESPTH_07_12<tspan x="285.76" class="ty">numeric</tspan></text><text x="13" y="1236" class="tf">FRESHVEG_FARMS07<tspan x="285.76" class="ty">numeric</tspan></text><text x="13" y="1261" class="tf">FRESHVEG_FARMS12<tspan x="285.76" class="ty">numeric</tspan></text><text x="13" y="1286" class="tf">PCH_FRESHVEG_FARMS_07_12<tspan x="285.76" class="ty">numeric</tspan></text><text x="13" y="1311" class="tf">FRESHVEG_ACRES07<tspan x="285.76" class="ty">numeric</tspan></text><text x="13" y="1336" class="tf">FRESHVEG_ACRES12<tspan x="285.76" class="ty">numeric</tspan></text><text x="13" y="1361" class="tf">PCH_FRESHVEG_ACRES_07_12<tspan x="285.76" class="ty">numeric</tspan></text><text x="13" y="1386" class="tf">FRESHVEG_ACRESPTH07<tspan x="285.76" class="ty">numeric</tspan></text><text x="13" y="1411" class="tf">FRESHVEG_ACRESPTH12<tspan x="285.76" class="ty">numeric</tspan></text><text x="13" y="1436" class="tf">PCH_FRESHVEG_ACRESPTH_07_12<tspan x="285.76" class="ty">numeric</tspan></text><text x="13" y="1461" class="tf">ORCHARD_FARMS07<tspan x="285.76" class="ty">numeric</tspan></text><text x="13" y="1486" class="tf">ORCHARD_FARMS12<tspan x="285.76" class="ty">numeric</tspan></text><text x="13" y="1511" class="tf">PCH_ORCHARD_FARMS_07_12<tspan x="285.76" class="ty">numeric</tspan></text><text x="13" y="1536" class="tf">ORCHARD_ACRES07<tspan x="285.76" class="ty">numeric</tspan></text><text x="13" y="1561" class="tf">ORCHARD_ACRES12<tspan x="285.76" class="ty">numeric</tspan></text><text x="13" y="1586" class="tf">PCH_ORCHARD_ACRES_07_12<tspan x="285.76" class="ty">numeric</tspan></text><text x="13" y="1611" class="tf">ORCHARD_ACRESPTH07<tspan x="285.76" class="ty">numeric</tspan></text><text x="13" y="1636" class="tf">ORCHARD_ACRESPTH12<tspan x="285.76" class="ty">numeric</tspan></text><text x="13" y="1661" class="tf">PCH_ORCHARD_ACRESPTH_07_12<tspan x="285.76" class="ty">numeric</tspan></text><text x="13" y="1686" class="tf">BERRY_FARMS07<tspan x="285.76" class="ty">numeric</tspan></text><text x="13" y="1711" class="tf">BERRY_FARMS12<tspan x="285.76" class="ty">numeric</tspan></text><text x="13" y="1736" class="tf">PCH_BERRY_FARMS_07_12<tspan x="285.76" class="ty">numeric</tspan></text><text x="13" y="1761" class="tf">BERRY_ACRES07<tspan x="285.76" class="ty">numeric</tspan></text><text x="13" y="1786" class="tf">BERRY_ACRES12<tspan x="285.76" class="ty">numeric</tspan></text><text x="13" y="1811" class="tf">PCH_BERRY_ACRES_07_12<tspan x="285.76" class="ty">numeric</tspan></text><text x="13" y="1836" class="tf">BERRY_ACRESPTH07<tspan x="285.76" class="ty">numeric</tspan></text><text x="13" y="1861" class="tf">BERRY_ACRESPTH12<tspan x="285.76" class="ty">numeric</tspan></text><text x="13" y="1886" class="tf">PCH_BERRY_ACRESPTH_07_12<tspan x="285.76" class="ty">numeric</tspan></text><text x="13" y="1911" class="tf">SLHOUSE07<tspan x="285.76" class="ty">numeric</tspan></text><text x="13" y="1936" class="tf">SLHOUSE12<tspan x="285.76" class="ty">numeric</tspan></text><text x="13" y="1961" class="tf">PCH_SLHOUSE_07_12<tspan x="285.76" class="ty">numeric</tspan></text><text x="13" y="1986" class="tf">GHVEG_FARMS07<tspan x="285.76" class="ty">numeric</tspan></text><text x="13" y="2011" class="tf">GHVEG_FARMS12<tspan x="285.76" class="ty">numeric</tspan></text><text x="13" y="2036" class="tf">PCH_GHVEG_FARMS_07_12<tspan x="285.76" class="ty">numeric</tspan></text><text x="13" y="2061" class="tf">GHVEG_SQFT07<tspan x="285.76" class="ty">numeric</tspan></text><text x="13" y="2086" class="tf">GHVEG_SQFT12<tspan x="285.76" class="ty">numeric</tspan></text><text x="13" y="2111" class="tf">PCH_GHVEG_SQFT_07_12<tspan x="285.76" class="ty">numeric</tspan></text><text x="13" y="2136" class="tf">GHVEG_SQFTPTH07<tspan x="285.76" class="ty">numeric</tspan></text><text x="13" y="2161" class="tf">GHVEG_SQFTPTH12<tspan x="285.76" class="ty">numeric</tspan></text><text x="13" y="2186" class="tf">PCH_GHVEG_SQFTPTH_07_12<tspan x="285.76" class="ty">numeric</tspan></text><text x="13" y="2211" class="tf">FOODHUB16<tspan x="285.76" class="ty">numeric</tspan></text><text x="13" y="2236" class="tf">CSA07<tspan x="285.76" class="ty">numeric</tspan></text><text x="13" y="2261" class="tf">CSA12<tspan x="285.76" class="ty">numeric</tspan></text><text x="13" y="2286" class="tf">PCH_CSA_07_12<tspan x="285.76" class="ty">numeric</tspan></text><text x="13" y="2311" class="tf">AGRITRSM_OPS07<tspan x="285.76" class="ty">numeric</tspan></text><text x="13" y="2336" class="tf">AGRITRSM_OPS12<tspan x="285.76" class="ty">numeric</tspan></text><text x="13" y="2361" class="tf">PCH_AGRITRSM_OPS_07_12<tspan x="285.76" class="ty">numeric</tspan></text><text x="13" y="2386" class="tf">AGRITRSM_RCT07<tspan x="285.76" class="ty">numeric</tspan></text><text x="13" y="2411" class="tf">AGRITRSM_RCT12<tspan x="285.76" class="ty">numeric</tspan></text><text x="13" y="2436" class="tf">PCH_AGRITRSM_RCT_07_12<tspan x="285.76" class="ty">numeric</tspan></text><text x="13" y="2461" class="tf">FARM_TO_SCHOOL09<tspan x="285.76" class="ty">numeric</tspan></text><text x="13" y="2486" class="tf">FARM_TO_SCHOOL13<tspan x="285.76" class="ty">numeric</tspan></text></svg><svg width="188.76" height="275" x="483.4" y="-16.53" id="h2727502008" class="t"><rect height="40" width="188.76" class="th"></rect><text x="13" y="25" class="tht">county</text><rect height="235" width="188.76" class="t-bg"></rect><text x="13" y="61" class="tf pk">County<tspan x="175.76" class="ty">varchar</tspan></text><path d="M7,14A2,2 0 0,1 5,12A2,2 0 0,1 7,10A2,2 0 0,1 9,12A2,2 0 0,1 7,14M12.65,10C11.83,7.67 9.61,6 7, 6A6, 6 0 0, 0 1, 12A6, 6 0 0, 0 7, 18C9.61, 18 11.83, 16.33 12.65, 14H17V18H21V14H23V10H12.65Z" class="i pk" transform="translate(115.74632812499999, 48) scale(0.65)"></path><text x="13" y="86" class="tf">State<tspan x="175.76" class="ty">varchar</tspan></text><text x="13" y="111" class="tf">2010CensusPopulation<tspan x="175.76" class="ty">int</tspan></text><text x="13" y="136" class="tf">PopulationEstimate2011<tspan x="175.76" class="ty">int</tspan></text><text x="13" y="161" class="tf">PopulationEstimate2012<tspan x="175.76" class="ty">int</tspan></text><text x="13" y="186" class="tf">PopulationEstimate2013<tspan x="175.76" class="ty">int</tspan></text><text x="13" y="211" class="tf">PopulationEstimate2014<tspan x="175.76" class="ty">int</tspan></text><text x="13" y="236" class="tf">PopulationEstimate2015<tspan x="175.76" class="ty">int</tspan></text><text x="13" y="261" class="tf">PopulationEstimate2016<tspan x="175.76" class="ty">int</tspan></text></svg><svg width="185.4" height="200" x="-451" y="-234" id="h2246349353" class="t"><rect height="40" width="185.4" class="th"></rect><text x="13" y="25" class="tht">Variables</text><rect height="160" width="185.4" class="t-bg"></rect><text x="13" y="61" class="tf">CategoryCode<tspan x="172.4" class="ty">varchar</tspan></text><text x="13" y="86" class="tf">SubcategoryName<tspan x="172.4" class="ty">varchar</tspan></text><text x="13" y="111" class="tf">VariableName<tspan x="172.4" class="ty">varchar</tspan></text><text x="13" y="136" class="tf">VariableCode<tspan x="172.4" class="ty">varchar</tspan></text><text x="13" y="161" class="tf">Geography<tspan x="172.4" class="ty">varchar</tspan></text><text x="13" y="186" class="tf">Units<tspan x="172.4" class="ty">varchar</tspan></text></svg><svg width="234.74" height="975" x="494" y="750" id="h2753778568" class="t"><rect height="40" width="234.74" class="th"></rect><text x="13" y="25" class="tht">restaurants</text><rect height="935" width="234.74" class="t-bg"></rect><text x="13" y="61" class="tf fk">County<tspan x="221.74" class="ty">varchar</tspan></text><text x="13" y="86" class="tf">GROC09<tspan x="221.74" class="ty">numeric</tspan></text><text x="13" y="111" class="tf">GROC14<tspan x="221.74" class="ty">numeric</tspan></text><text x="13" y="136" class="tf">PCH_GROC_09_14<tspan x="221.74" class="ty">numeric</tspan></text><text x="13" y="161" class="tf">GROCPTH09<tspan x="221.74" class="ty">numeric</tspan></text><text x="13" y="186" class="tf">GROCPTH14<tspan x="221.74" class="ty">numeric</tspan></text><text x="13" y="211" class="tf">PCH_GROCPTH_09_14<tspan x="221.74" class="ty">numeric</tspan></text><text x="13" y="236" class="tf">SUPERC09<tspan x="221.74" class="ty">numeric</tspan></text><text x="13" y="261" class="tf">SUPERC14<tspan x="221.74" class="ty">numeric</tspan></text><text x="13" y="286" class="tf">PCH_SUPERC_09_14<tspan x="221.74" class="ty">numeric</tspan></text><text x="13" y="311" class="tf">SUPERCPTH09<tspan x="221.74" class="ty">numeric</tspan></text><text x="13" y="336" class="tf">SUPERCPTH14<tspan x="221.74" class="ty">numeric</tspan></text><text x="13" y="361" class="tf">PCH_SUPERCPTH_09_14<tspan x="221.74" class="ty">numeric</tspan></text><text x="13" y="386" class="tf">CONVS09<tspan x="221.74" class="ty">numeric</tspan></text><text x="13" y="411" class="tf">CONVS14<tspan x="221.74" class="ty">numeric</tspan></text><text x="13" y="436" class="tf">PCH_CONVS_09_14<tspan x="221.74" class="ty">numeric</tspan></text><text x="13" y="461" class="tf">CONVSPTH09<tspan x="221.74" class="ty">numeric</tspan></text><text x="13" y="486" class="tf">CONVSPTH14<tspan x="221.74" class="ty">numeric</tspan></text><text x="13" y="511" class="tf">PCH_CONVSPTH_09_14<tspan x="221.74" class="ty">numeric</tspan></text><text x="13" y="536" class="tf">SPECS09<tspan x="221.74" class="ty">numeric</tspan></text><text x="13" y="561" class="tf">SPECS14<tspan x="221.74" class="ty">numeric</tspan></text><text x="13" y="586" class="tf">PCH_SPECS_09_14<tspan x="221.74" class="ty">numeric</tspan></text><text x="13" y="611" class="tf">SPECSPTH09<tspan x="221.74" class="ty">numeric</tspan></text><text x="13" y="636" class="tf">SPECSPTH14<tspan x="221.74" class="ty">numeric</tspan></text><text x="13" y="661" class="tf">PCH_SPECSPTH_09_14<tspan x="221.74" class="ty">numeric</tspan></text><text x="13" y="686" class="tf">SNAPS12<tspan x="221.74" class="ty">numeric</tspan></text><text x="13" y="711" class="tf">SNAPS16<tspan x="221.74" class="ty">numeric</tspan></text><text x="13" y="736" class="tf">PCH_SNAPS_12_16<tspan x="221.74" class="ty">numeric</tspan></text><text x="13" y="761" class="tf">SNAPSPTH12<tspan x="221.74" class="ty">numeric</tspan></text><text x="13" y="786" class="tf">SNAPSPTH16<tspan x="221.74" class="ty">numeric</tspan></text><text x="13" y="811" class="tf">PCH_SNAPSPTH_12_16<tspan x="221.74" class="ty">numeric</tspan></text><text x="13" y="836" class="tf">WICS08<tspan x="221.74" class="ty">numeric</tspan></text><text x="13" y="861" class="tf">WICS12<tspan x="221.74" class="ty">numeric</tspan></text><text x="13" y="886" class="tf">PCH_WICS_08_12<tspan x="221.74" class="ty">numeric</tspan></text><text x="13" y="911" class="tf">WICSPTH08<tspan x="221.74" class="ty">numeric</tspan></text><text x="13" y="936" class="tf">WICSPTH12<tspan x="221.74" class="ty">numeric</tspan></text><text x="13" y="961" class="tf">PCH_WICSPTH_08_12<tspan x="221.74" class="ty">numeric</tspan></text></svg><svg width="216.95" height="275" x="750" y="322" id="h3430643748" class="t"><rect height="40" width="216.95" class="th"></rect><text x="13" y="25" class="tht">PRICES_TAXES</text><rect height="235" width="216.95" class="t-bg"></rect><text x="13" y="61" class="tf fk">County<tspan x="203.95" class="ty">varchar</tspan></text><text x="13" y="86" class="tf">MILK_PRICE10<tspan x="203.95" class="ty">numeric</tspan></text><text x="13" y="111" class="tf">SODA_PRICE10<tspan x="203.95" class="ty">numeric</tspan></text><text x="13" y="136" class="tf">MILK_SODA_PRICE10<tspan x="203.95" class="ty">numeric</tspan></text><text x="13" y="161" class="tf">SODATAX_STORES14<tspan x="203.95" class="ty">numeric</tspan></text><text x="13" y="186" class="tf">SODATAX_VENDM14<tspan x="203.95" class="ty">numeric</tspan></text><text x="13" y="211" class="tf">CHIPSTAX_STORES14<tspan x="203.95" class="ty">numeric</tspan></text><text x="13" y="236" class="tf">CHIPSTAX_VENDM14<tspan x="203.95" class="ty">numeric</tspan></text><text x="13" y="261" class="tf">FOOD_TAX14<tspan x="203.95" class="ty">numeric</tspan></text></svg><svg width="277.44" height="1100" x="-398.58000000000004" y="94.28999999999999" id="h2627390037" class="t"><rect height="40" width="277.44" class="th"></rect><text x="13" y="25" class="tht">Access</text><rect height="1060" width="277.44" class="t-bg"></rect><text x="13" y="61" class="tf fk">County<tspan x="264.44" class="ty">varchar</tspan></text><text x="13" y="86" class="tf">LACCESS_POP10<tspan x="264.44" class="ty">numeric</tspan></text><text x="13" y="111" class="tf">LACCESS_POP15<tspan x="264.44" class="ty">numeric</tspan></text><text x="13" y="136" class="tf">PCH_LACCESS_POP_10_15<tspan x="264.44" class="ty">numeric</tspan></text><text x="13" y="161" class="tf">PCT_LACCESS_POP10<tspan x="264.44" class="ty">numeric</tspan></text><text x="13" y="186" class="tf">PCT_LACCESS_POP15<tspan x="264.44" class="ty">numeric</tspan></text><text x="13" y="211" class="tf">LACCESS_LOWI10<tspan x="264.44" class="ty">numeric</tspan></text><text x="13" y="236" class="tf">LACCESS_LOWI15<tspan x="264.44" class="ty">numeric</tspan></text><text x="13" y="261" class="tf">PCH_LACCESS_LOWI_10_15<tspan x="264.44" class="ty">numeric</tspan></text><text x="13" y="286" class="tf">PCT_LACCESS_LOWI10<tspan x="264.44" class="ty">numeric</tspan></text><text x="13" y="311" class="tf">PCT_LACCESS_LOWI15<tspan x="264.44" class="ty">numeric</tspan></text><text x="13" y="336" class="tf">LACCESS_HHNV10<tspan x="264.44" class="ty">numeric</tspan></text><text x="13" y="361" class="tf">LACCESS_HHNV15<tspan x="264.44" class="ty">numeric</tspan></text><text x="13" y="386" class="tf">PCH_LACCESS_HHNV_10_15<tspan x="264.44" class="ty">numeric</tspan></text><text x="13" y="411" class="tf">PCT_LACCESS_HHNV10<tspan x="264.44" class="ty">numeric</tspan></text><text x="13" y="436" class="tf">PCT_LACCESS_HHNV15<tspan x="264.44" class="ty">numeric</tspan></text><text x="13" y="461" class="tf">LACCESS_SNAP15<tspan x="264.44" class="ty">numeric</tspan></text><text x="13" y="486" class="tf">PCT_LACCESS_SNAP15<tspan x="264.44" class="ty">numeric</tspan></text><text x="13" y="511" class="tf">LACCESS_CHILD10<tspan x="264.44" class="ty">numeric</tspan></text><text x="13" y="536" class="tf">LACCESS_CHILD15<tspan x="264.44" class="ty">numeric</tspan></text><text x="13" y="561" class="tf">PCH_LACCESS_CHILD_10_15<tspan x="264.44" class="ty">numeric</tspan></text><text x="13" y="586" class="tf">PCT_LACCESS_CHILD10<tspan x="264.44" class="ty">numeric</tspan></text><text x="13" y="611" class="tf">PCT_LACCESS_CHILD15<tspan x="264.44" class="ty">numeric</tspan></text><text x="13" y="636" class="tf">LACCESS_SENIORS10<tspan x="264.44" class="ty">numeric</tspan></text><text x="13" y="661" class="tf">LACCESS_SENIORS15<tspan x="264.44" class="ty">numeric</tspan></text><text x="13" y="686" class="tf">PCH_LACCESS_SENIORS_10_15<tspan x="264.44" class="ty">numeric</tspan></text><text x="13" y="711" class="tf">PCT_LACCESS_SENIORS10<tspan x="264.44" class="ty">numeric</tspan></text><text x="13" y="736" class="tf">PCT_LACCESS_SENIORS15<tspan x="264.44" class="ty">numeric</tspan></text><text x="13" y="761" class="tf">LACCESS_WHITE15<tspan x="264.44" class="ty">numeric</tspan></text><text x="13" y="786" class="tf">PCT_LACCESS_WHITE15<tspan x="264.44" class="ty">numeric</tspan></text><text x="13" y="811" class="tf">LACCESS_BLACK15<tspan x="264.44" class="ty">numeric</tspan></text><text x="13" y="836" class="tf">PCT_LACCESS_BLACK15<tspan x="264.44" class="ty">numeric</tspan></text><text x="13" y="861" class="tf">LACCESS_HISP15<tspan x="264.44" class="ty">numeric</tspan></text><text x="13" y="886" class="tf">PCT_LACCESS_HISP15<tspan x="264.44" class="ty">numeric</tspan></text><text x="13" y="911" class="tf">LACCESS_NHASIAN15<tspan x="264.44" class="ty">numeric</tspan></text><text x="13" y="936" class="tf">PCT_LACCESS_NHASIAN15<tspan x="264.44" class="ty">numeric</tspan></text><text x="13" y="961" class="tf">LACCESS_NHNA15<tspan x="264.44" class="ty">numeric</tspan></text><text x="13" y="986" class="tf">PCT_LACCESS_NHNA15<tspan x="264.44" class="ty">numeric</tspan></text><text x="13" y="1011" class="tf">LACCESS_NHPI15<tspan x="264.44" class="ty">numeric</tspan></text><text x="13" y="1036" class="tf">PCT_LACCESS_NHPI15<tspan x="264.44" class="ty">numeric</tspan></text><text x="13" y="1061" class="tf">LACCESS_MULTIR15<tspan x="264.44" class="ty">numeric</tspan></text><text x="13" y="1086" class="tf">PCT_LACCESS_MULTIR15<tspan x="264.44" class="ty">numeric</tspan></text></svg></g></g><text class="qdbd-link" x="10" y="20">www.quickdatabasediagrams.com</text></svg>